<?xml version="1.0" encoding="UTF-8" standalone="no"?>
<svg width="200px" height="183px" viewBox="0 0 200 183" version="1.1" xmlns="http://www.w3.org/2000/svg" xmlns:xlink="http://www.w3.org/1999/xlink" xmlns:sketch="http://www.bohemiancoding.com/sketch/ns">
    <!-- Generator: Sketch 3.3 (11970) - http://www.bohemiancoding.com/sketch -->
    <title>logo-cf2</title>
    <desc>Created with Sketch.</desc>
    <defs></defs>
    <g id="Page-1" stroke="none" stroke-width="1" fill="none" fill-rule="evenodd" sketch:type="MSPage">
        <g id="logo-cf2" sketch:type="MSLayerGroup">
            <g id="Page-1" sketch:type="MSShapeGroup">
                <g id="logo-cf">
                    <g id="Group">
                        <path d="M0,0 L199.74715,0 L199.74715,183 L0,183 L0,0 L0,0 Z" id="Shape" fill="#FFFFFF"></path>
                        <path d="M42.692228,93.5222798 C42.692228,63.2497409 67.2352332,38.7098446 97.5036269,38.7098446 C127.777202,38.7098446 152.311917,63.2487047 152.311917,93.5222798 C152.311917,123.79171 127.777202,148.334715 97.5036269,148.334715 C67.2341969,148.334715 42.692228,123.79171 42.692228,93.5222798 L42.692228,93.5222798 L42.692228,93.5222798 Z" id="Shape" fill="#0173D6"></path>
                        <path d="M82.2797927,19.0528497 C81.0217617,19.334715 79.7170984,19.6621762 78.4559585,19.9481865 L74.4694301,3.86839378 C75.7274611,3.46321244 77.0321244,3.26217617 78.2932642,2.93782383 L82.2797927,19.0528497 L82.2797927,19.0528497 Z" id="Shape" fill="#000000"></path>
                        <path d="M129.736788,10.2196891 L126.117098,8.91917098 C126.32228,8.10466321 126.646632,7.04663212 127.012435,6.14818653 L130.67772,7.53264249 L129.736788,10.2196891 L129.736788,10.2196891 Z" id="Shape" fill="#000000"></path>
                        <path d="M104.298446,6.80103627 C104.38342,7.49222798 104.17513,8.26735751 104.260104,8.91917098 C105.356477,7.32849741 107.316062,6.88601036 109.184456,7.20932642 C110.450777,7.45284974 111.707772,8.51295337 112.032124,9.81036269 C113.336788,8.26735751 115.535751,7.81968912 117.446632,8.46735751 C118.18342,8.67564767 118.870466,9.08082902 119.356477,9.81036269 C120.213472,11.438342 119.766839,13.2290155 119.565803,15.0238342 C119.194819,16.8145078 118.912953,18.6435233 118.627979,20.4766839 C117.404145,20.2725389 116.100518,19.9098446 114.842487,19.6621762 C115.089119,17.4238342 115.57513,15.1854922 115.818653,12.9046632 C115.737824,12.2984456 115.494301,11.6466321 114.842487,11.3989637 C114.352332,11.1564767 113.66114,11.2756477 113.176166,11.4839378 C111.180311,13.3129534 111.708808,16.3222798 111.099482,18.7658031 C109.875648,18.5658031 108.451813,18.480829 107.193782,18.1948187 L108.004145,11.8082902 C107.923316,11.2373057 107.760622,10.707772 107.232124,10.3803109 C106.66114,10.0943005 106.174093,10.1792746 105.565803,10.3419689 C103.204145,12.0507772 104.014508,15.307772 103.365803,17.8279793 L99.746114,17.665285 L100.842487,6.4746114 L104.298446,6.80103627 L104.298446,6.80103627 Z" id="Shape" fill="#000000"></path>
                        <path d="M125.099482,22.880829 L121.437306,21.5378238 L125.422798,10.6704663 L129.049741,12.0103627 L125.099482,22.880829 L125.099482,22.880829 Z" id="Shape" fill="#000000"></path>
                        <path d="M138.288083,15.5948187 C138.97513,16.161658 139.831088,16.5284974 140.645596,16.9378238 C140.403109,17.7523316 139.792746,18.5668394 139.421762,19.4196891 L136.944041,18.1150259 L134.621762,22.5139896 C134.41658,22.880829 134.41658,23.4901554 134.621762,23.8569948 C135.031088,24.5865285 135.840415,24.6715026 136.497409,24.9948187 L135.436269,27.2756477 C133.603109,26.5419689 131.326425,25.8911917 130.517098,23.7336788 C130.223834,20.8010363 132.384456,18.7668394 133.441451,16.3243523 L131.446632,15.1481865 L132.750259,12.7440415 L134.746114,13.8051813 C135.232124,13.1533679 135.597927,12.2994819 136.003109,11.5626943 L139.993782,12.3388601 L138.288083,15.5948187 L138.288083,15.5948187 Z" id="Shape" fill="#000000"></path>
                        <path d="M95.0611399,8.46735751 C95.9948187,11.2766839 95.5896373,14.6186528 96.2797927,17.5440415 L92.6984456,17.8290155 L92.4165803,16.080829 C91.7647668,17.3803109 90.3834197,18.2797927 88.9554404,18.357513 C87.2041451,18.442487 85.3740933,17.9948187 84.6031088,16.3233161 C84.1554404,15.3088083 84.1927461,13.8414508 84.8031088,12.9046632 C86.4321244,10.7471503 89.2829016,10.7088083 91.8487047,10.6704663 C91.9264249,10.3430052 91.7253886,9.93367876 91.5170984,9.60932642 C90.1357513,8.18549223 87.8165803,9.08082902 86.2694301,9.56683938 L85.4974093,9.97202073 L85.2497409,7.32849741 C88.184456,6.14818653 93.0238342,5.09119171 95.0611399,8.46735751 L95.0611399,8.46735751 L95.0611399,8.46735751 Z M88.1419689,13.9243523 C87.9792746,14.4103627 88.0994819,14.9430052 88.5088083,15.3098446 C89.0797927,15.7150259 90.0528497,15.7150259 90.6694301,15.3865285 C91.5181347,14.7813472 92.1316062,13.842487 91.9274611,12.7854922 C90.584456,12.9440415 88.9170984,12.5813472 88.1419689,13.9243523 L88.1419689,13.9243523 L88.1419689,13.9243523 Z" id="Shape" fill="#000000"></path>
                        <path d="M56.6797927,15.8766839 C54.3564767,16.0818653 51.8797927,17.0580311 50.7409326,19.334715 C49.9264249,21.2911917 50.6176166,23.4476684 51.9606218,24.9139896 C53.1378238,26.1378238 54.7668394,26.6238342 56.4787565,26.2145078 C58.307772,25.6466321 59.9367876,24.2994819 61.1181347,22.6756477 L62.9512953,25.2766839 C60.1813472,28.2487047 56.7658031,30.3668394 52.6093264,29.8373057 C49.519171,29.4321244 47.2031088,26.1751295 46.4663212,23.4041451 C45.7751295,20.1937824 47.280829,17.3419689 49.9264249,15.3854922 C51.5088083,14.1274611 53.346114,13.4756477 55.2559585,12.9430052 L56.6797927,15.8766839 L56.6797927,15.8766839 Z" id="Shape" fill="#000000"></path>
                        <path d="M72.4321244,13.0673575 C73.6124352,15.5948187 74.346114,18.280829 75.6466321,20.7233161 L72.3119171,21.9813472 C72.0694301,21.4528497 71.8601036,20.9233161 71.5357513,20.3958549 C71.2082902,21.5378238 70.6829016,22.7958549 69.4984456,23.3284974 C68.1554404,23.9803109 66.0020725,24.4248705 64.6974093,23.4051813 C63.5554404,22.3512953 62.9492228,20.8849741 63.3927461,19.4186528 C64.4963731,16.9367876 67.1357513,16.080829 69.4590674,15.4321244 C69.3782383,14.8569948 68.8497409,14.4943005 68.4010363,14.2476684 C66.3637306,14.042487 64.534715,15.0621762 63.1492228,16.6093264 C62.8248705,15.7564767 62.4196891,14.9430052 62.173057,14.0849741 C64.9036269,11.8901554 69.7046632,9.36683938 72.4321244,13.0673575 L72.4321244,13.0673575 L72.4321244,13.0673575 Z M70.1554404,17.3430052 C69.0974093,17.7056995 67.9948187,17.9523316 67.1378238,18.8093264 C66.8518135,19.1336788 66.7751295,19.6238342 66.8518135,20.0715026 C67.0217617,20.3523316 67.2217617,20.7233161 67.546114,20.8010363 C68.4414508,20.9626943 69.3367876,20.7233161 69.907772,19.9481865 C70.4414508,19.1720207 70.3948187,18.238342 70.1554404,17.3430052 L70.1554404,17.3430052 L70.1554404,17.3430052 Z" id="Shape" fill="#000000"></path>
                        <path d="M151.146114,24.9948187 C151.879793,27.4373057 150.739896,29.7150259 149.154404,31.4663212 C147.032124,29.919171 145.002073,28.1284974 142.887047,26.5803109 C142.47772,27.0673575 142.47772,27.8041451 142.602073,28.4559585 C143.412435,30.4476684 145.574093,31.426943 147.403109,31.9523316 L145.690155,34.0704663 C143.049741,33.2559585 140.079793,31.0186528 139.299482,28.2093264 C138.694301,25.7274611 139.754404,23.4476684 141.707772,21.8621762 C143.293264,20.557513 145.859067,20.3958549 147.688083,21.3295337 C149.116062,22.1046632 150.576166,23.4051813 151.146114,24.9948187 L151.146114,24.9948187 L151.146114,24.9948187 Z M146.221762,23.7336788 C145.526425,23.8569948 144.797927,24.1388601 144.392746,24.7906736 C145.526425,25.6860104 146.626943,26.6238342 147.811399,27.438342 C148.17513,26.8290155 148.58342,26.1378238 148.336788,25.3233161 C148.012435,24.5088083 147.118135,23.7720207 146.221762,23.7336788 L146.221762,23.7336788 L146.221762,23.7336788 Z" id="Shape" fill="#000000"></path>
                        <path d="M162.66943,28.3709845 C162.17513,29.1046632 161.404145,29.7564767 160.751295,30.4476684 C159.736788,29.6331606 158.841451,28.5751295 157.86114,27.680829 L159.936788,25.6051813 L162.66943,28.3709845 L162.66943,28.3709845 Z" id="Shape" fill="#000000"></path>
                        <path d="M159.289119,31.7906736 C156.725389,34.561658 153.874611,37.2435233 151.189637,39.9751295 L148.380311,37.1658031 L156.479793,29.0621762 C157.455959,29.8766839 158.35544,30.8994819 159.289119,31.7906736 L159.289119,31.7906736 L159.289119,31.7906736 Z" id="Shape" fill="#000000"></path>
                        <path d="M43.4134715,40.3803109 C22.2497409,61.3378238 15.7367876,95.6124352 27.6601036,122.838342 C35.5595855,143.270466 56.557513,161.380311 77.357513,166.509845 C95.7139896,171.846632 117.690155,169.076684 133.605181,160.081865 C134.095337,160.366839 134.500518,160.814508 134.948187,161.181347 C114.434197,173.553368 83.8259067,175.304663 61.6103627,165.332642 C43.9015544,158.45285 26.3222798,141.891192 18.3440415,124.385492 C9.10569948,106.030052 7.35544041,81.3243523 14.2310881,61.3005181 C18.0611399,50.1906736 23.880829,39.8911917 32.3440415,30.7336788 C36.0445596,33.9088083 39.7512953,37.1243523 43.4134715,40.3803109 L43.4134715,40.3803109 L43.4134715,40.3803109 Z" id="Shape" fill="#000000"></path>
                        <path d="M165.678756,34.4766839 L169.060104,36.7181347 L166.127461,39.1150259 L167.836269,41.2756477 L165.717098,43.0238342 L163.965803,40.9056995 C162.500518,42.1295337 160.751295,43.1865285 159.651813,44.7378238 C159.366839,45.6715026 160.184456,46.3626943 160.871503,46.9720207 L159.042487,48.638342 C157.37513,47.2994819 155.665285,45.5512953 155.86943,43.3098446 C156.803109,40.8279793 159.612435,39.6051813 161.445596,37.7720207 C160.993782,37.2041451 160.589637,36.5948187 160.060104,36.0663212 L162.17513,34.3139896 L163.679793,36.0663212 L165.678756,34.4766839 L165.678756,34.4766839 Z" id="Shape" fill="#000000"></path>
                        <path d="M96.6507772,83.642487 L60.8321244,52.1005181 C70.6031088,42.1284974 82.7274611,37.2435233 96.6507772,37.0041451 L96.6507772,83.642487 L96.6507772,83.642487 Z" id="Shape" fill="#000000"></path>
                        <path d="M120.784456,51.9388601 L120.94715,51.8953368 L125.546114,46.7284974 C139.221762,54.8673575 148.540933,68.8715026 151.065285,83.6435233 L143.169948,89.1388601 C141.826943,74.242487 132.384456,59.7533679 118.507772,52.7523316 C117.935751,52.5481865 117.12228,52.3854922 116.554404,52.7098446 C116.145078,53.361658 116.346114,54.3378238 116.385492,55.1139896 C116.631088,56.5803109 117.160622,58.2041451 116.385492,59.6290155 C114.879793,63.6621762 112.603109,67.4860104 109.06114,70.5803109 C106.455959,72.2466321 103.770984,73.7129534 101.450777,75.9523316 L101.493264,46.080829 C108.490155,46.6476684 114.879793,48.6849741 120.784456,51.9388601 L120.784456,51.9388601 L120.784456,51.9388601 Z" id="Shape" fill="#000000"></path>
                        <path d="M173.820725,49.7813472 C174.631088,51.0818653 175.163731,52.8331606 174.588601,54.4621762 C174.021762,56.1326425 172.26943,57.6766839 170.725389,58.4528497 C169.259067,56.2953368 168.035233,53.9295337 166.573057,51.6953368 C166.163731,51.9388601 165.878756,52.4248705 165.67772,52.8331606 C165.350259,55.1523316 167.144041,56.9854922 168.889119,58.2901554 L166.612435,59.6715026 C163.926425,57.5958549 162.094301,54.5046632 162.746114,51.0435233 C163.156477,49.0911917 165.188601,47.5015544 166.976166,46.8953368 C169.665285,45.9948187 172.435233,47.3378238 173.820725,49.7813472 L173.820725,49.7813472 L173.820725,49.7813472 Z M168.527461,50.5139896 C169.260104,51.7336788 170.032124,52.9533679 170.726425,54.1761658 C171.251813,54.0134715 171.737824,53.442487 171.946114,52.9523316 C172.231088,51.9803109 171.784456,51.1658031 171.170984,50.5129534 C170.518135,49.8196891 169.179275,50.1046632 168.527461,50.5139896 L168.527461,50.5139896 L168.527461,50.5139896 Z" id="Shape" fill="#000000"></path>
                        <path d="M95.0611399,88.5709845 C91.7658031,88.2041451 89.0797927,85.8 85.4984456,86.1284974 C83.584456,86.6953368 82.3647668,89.5046632 80.0414508,88.4082902 C76.907772,86.8186528 75.8507772,83.4 74.8321244,80.4704663 C74.5854922,79.5326425 73.242487,79.7367876 73.2041451,78.6797927 C73.1658031,76.2756477 74.1803109,73.3036269 72.5564767,71.2704663 C68.8901554,68.7046632 66.2051813,64.8414508 66.042487,60.361658 C52.7326425,72.6943005 48.1336788,92.4331606 54.6041451,109.490155 C57.0891192,116.041451 61.0797927,122.146114 66.6901554,127.236269 C49.5564767,114.414508 42.4777202,93.0849741 48.584456,72.4901554 C50.6601036,65.7761658 54.0756477,59.6279793 58.880829,54.0528497 L96.0373057,86.8186528 L95.0611399,88.5709845 L95.0611399,88.5709845 Z" id="Shape" fill="#000000"></path>
                        <path d="M179.516062,63.6621762 C178.945078,63.9896373 178.212435,64.1056995 177.559585,64.3533679 C178.174093,64.6341969 178.864249,64.7585492 179.392746,65.1678756 C180.898446,66.4300518 181.507772,68.3015544 181.222798,70.211399 C180.494301,73.1056995 177.359585,73.3056995 175.163731,74.1626943 L171.131606,75.3854922 C170.563731,74.2435233 170.317098,72.8580311 169.907772,71.638342 C172.230052,70.7854922 174.754404,70.3772021 176.911917,69.157513 C177.478756,68.7481865 177.725389,68.0963731 177.521244,67.4051813 C177.359585,66.7958549 176.911917,66.1430052 176.298446,65.9005181 C173.534715,65.2487047 171.169948,66.9150259 168.603109,67.4051813 C168.240415,66.1430052 167.792746,64.9202073 167.506736,63.6621762 C171.168912,62.561658 174.830052,61.3813472 178.496373,60.3243523 L179.516062,63.6621762 L179.516062,63.6621762 Z" id="Shape" fill="#000000"></path>
                        <path d="M183.26114,76.0756477 C183.38342,76.8476684 183.422798,77.6611399 183.666321,78.3523316 C185.013472,78.1088083 186.718135,77.9430052 187.903627,78.719171 C189.527461,80.1005181 189.85285,82.3813472 189.651813,84.2953368 C188.757513,84.3378238 187.903627,84.4186528 187.004145,84.4569948 C187.165803,83.7658031 187.004145,83.1181347 186.719171,82.5430052 C186.151295,81.8518135 185.095337,82.0569948 184.320207,82.1803109 L184.196891,82.3036269 L184.605181,84.9854922 L181.957513,85.4756477 L181.433161,82.6663212 L172.881865,84.0093264 C172.557513,82.7906736 172.437306,81.4051813 172.194819,80.1471503 L180.777202,78.719171 C180.777202,77.9896373 180.615544,77.2134715 180.496373,76.438342 L183.139896,75.9523316 L183.26114,76.0756477 L183.26114,76.0756477 Z" id="Shape" fill="#000000"></path>
                        <path d="M110.450777,84.9471503 C114.718135,88.161658 119.726425,89.5471503 125.180311,89.8704663 C125.917098,89.9523316 126.441451,90.7658031 126.564767,91.4569948 L126.564767,91.6186528 L101.450777,91.6186528 L101.450777,82.0559585 C104.507772,82.9523316 107.759585,83.280829 110.450777,84.9471503 L110.450777,84.9471503 L110.450777,84.9471503 Z" id="Shape" fill="#000000"></path>
                        <path d="M154.765803,91.4569948 C151.027979,91.5419689 147.156477,91.5419689 143.413472,91.4569948 L154.079793,84.0476684 C154.483938,86.4518135 154.727461,88.8953368 154.765803,91.4569948 L154.765803,91.4569948 L154.765803,91.4569948 Z" id="Shape" fill="#000000"></path>
                        <path d="M184.15544,90.561658 C185.413472,93.0860104 185.37513,96.8715026 183.503627,99.1098446 C182.118135,100.73886 180.126425,101.229016 178.050777,101.067358 C175.931606,100.859067 173.898446,99.0715026 173.365803,97.0725389 C172.556477,94.6331606 172.879793,91.4580311 174.632124,89.5056995 C176.013472,87.957513 178.013472,87.5108808 180.089119,87.757513 C181.716062,88.080829 183.302591,89.0186528 184.15544,90.561658 L184.15544,90.561658 L184.15544,90.561658 Z M180.045596,91.9046632 C178.660104,91.7803109 177.15544,91.7419689 176.218653,92.9233161 C175.731606,93.4943005 175.769948,94.4279793 175.851813,95.2041451 C176.136788,96.1419689 177.156477,96.7088083 178.051813,96.8715026 C179.433161,97.1181347 180.818653,96.8715026 181.794819,95.8528497 C182.280829,95.1233161 182.404145,93.9005181 181.918135,93.1243523 C181.507772,92.4341969 180.736788,92.1098446 180.045596,91.9046632 L180.045596,91.9046632 L180.045596,91.9046632 Z" id="Shape" fill="#000000"></path>
                        <path d="M126.889119,94.6756477 C125.66943,101.795855 123.146114,108.351295 119.318135,114.374093 C115.817617,119.17513 111.545078,124.708808 105.968912,126.827979 C104.506736,127.356477 102.592746,127.356477 101.164767,126.827979 C100.636269,126.214508 100.879793,125.158549 100.963731,124.427979 C101.817617,120.762694 102.592746,116.978238 102.184456,112.909845 C101.898446,110.996891 99.946114,109.858031 99.0891192,108.185492 C96.4880829,104.566839 94.8590674,98.8248705 97.5025907,94.6756477 L126.889119,94.6756477 L126.889119,94.6756477 Z" id="Shape" fill="#000000"></path>
                        <path d="M145.041451,94.7139896 C144.354404,112.013472 137.026943,128.941969 120.94715,137.450777 L120.699482,137.450777 L117.566839,134.683938 C132.751295,127.189637 143.050777,111.523316 143.294301,94.7139896 C143.821762,94.6331606 144.517098,94.6331606 145.041451,94.7139896 L145.041451,94.7139896 L145.041451,94.7139896 Z" id="Shape" fill="#000000"></path>
                        <path d="M184.194819,105.580311 C184.117098,106.724352 183.707772,107.899482 183.422798,109.081865 C182.774093,108.962694 182.079793,108.715026 181.431088,108.715026 C182.974093,109.980311 183.180311,112.133679 182.612435,113.883938 C182.280829,115.066321 181.184456,116.245596 179.964767,116.569948 C178.135751,117.017617 176.38342,116.323316 174.632124,115.998964 L170.233161,114.941969 L171.132642,111.2 C173.57513,111.442487 176.013472,112.584456 178.703627,112.46114 C179.109845,112.376166 179.517098,112.013472 179.764767,111.609326 C180.003109,110.870466 180.089119,109.77513 179.433161,109.205181 C177.4,107.537824 174.589637,107.656995 172.193782,106.843523 L173.042487,102.978238 C176.74715,103.875648 180.494301,104.728497 184.194819,105.580311 L184.194819,105.580311 L184.194819,105.580311 Z" id="Shape" fill="#000000"></path>
                        <path d="M92.1740933,124.95544 C92.4549223,125.647668 91.5181347,126.541969 92.5367876,126.827979 C97.5025907,128.704663 103.364767,128.414508 108.490155,130 C110.650777,130.900518 112.684974,132.728497 114.150259,134.762694 C114.556477,135.047668 114.964767,135.333679 115.454922,135.456995 C109.551295,138.104663 102.998964,139.324352 95.8746114,139.162694 L95.7512953,145.143005 C87.1264249,144.862176 79.307772,142.495337 72.188601,138.54715 C74.384456,134.195855 76.788601,129.8 79.107772,125.447668 C82.1170984,124.708808 84.9647668,123.490155 87.8984456,122.553368 C89.7284974,122.430052 91.3948187,123.366839 92.1740933,124.95544 L92.1740933,124.95544 L92.1740933,124.95544 Z" id="Shape" fill="#000000"></path>
                        <path d="M178.298446,121.86114 C178.865285,122.919171 179.309845,124.141969 179.027979,125.48601 C178.621762,127.151295 177.236269,128.985492 175.446632,129.348187 L181.307772,132.161658 L179.679793,135.739896 L164.621762,128.781347 L166.127461,125.447668 C166.736788,125.68601 167.385492,126.095337 167.956477,126.176166 C167.223834,125.158549 166.898446,123.694301 167.308808,122.39171 C167.71399,120.724352 169.299482,119.17513 171.009326,118.851813 C173.899482,118.404145 176.545078,119.580311 178.298446,121.86114 L178.298446,121.86114 L178.298446,121.86114 Z M172.92228,122.961658 C172.06943,122.757513 170.968912,122.757513 170.317098,123.451813 C169.706736,124.056995 169.464249,125.078756 169.826943,125.891192 C170.517098,127.237306 171.945078,128.006218 173.449741,127.889119 C174.264249,127.804145 175.162694,127.11399 175.363731,126.300518 C175.445596,125.687047 175.445596,124.994819 175.118135,124.508808 C174.632124,123.613472 173.735751,123.290155 172.92228,122.961658 L172.92228,122.961658 L172.92228,122.961658 Z" id="Shape" fill="#000000"></path>
                        <path d="M165.678756,133.054922 C164.412435,133.870466 162.992746,135.212435 162.379275,136.637306 C162.260104,137.080829 162.545078,137.450777 162.907772,137.694301 C164.37513,137.817617 165.226943,136.109845 166.493264,135.498446 C167.184456,135.046632 168.159585,134.923316 169.013472,135.170984 C170.032124,135.537824 170.969948,136.515026 171.251813,137.570984 C171.66114,140.584456 169.546114,142.903627 167.307772,144.695337 C166.574093,144.247668 165.963731,143.55544 165.26943,142.946114 C166.450777,142.170984 167.836269,140.988601 168.241451,139.569948 C168.32228,139.2 168.159585,138.875648 167.835233,138.754404 C166.411399,138.709845 165.55544,140.503627 164.250777,141.073575 C163.517098,141.478756 162.58342,141.804145 161.687047,141.478756 C160.587565,141.11399 159.364767,140.055959 159.163731,138.833161 C159.001036,135.78342 161.116062,133.341969 163.396891,131.303627 C164.212435,131.752332 164.865285,132.527461 165.678756,133.054922 L165.678756,133.054922 L165.678756,133.054922 Z" id="Shape" fill="#000000"></path>
                    </g>
                </g>
            </g>
        </g>
    </g>
</svg>