<svg version="1.1" id="Laag_1" xmlns="http://www.w3.org/2000/svg" x="0" y="0" viewBox="0 0 174 137.4" xml:space="preserve"><style>.st1{fill:#dd0934}.st2{fill:#00a0dd}</style><path d="M120.7 51H89.5v-3.8h-3.3V51H54.5" fill="none"/><path class="st1" d="M124.5 51h30.6c-3.9-8.7-10.7-16.3-19.5-22.3-4.3 4.1-9.3 7.7-14.7 10.5 1.5 3.7 2.7 7.7 3.6 11.8zM89.5 47.3V51h31.2c-.8-3.6-1.8-7-3.1-10.2-8.5 4-18 6.3-28.1 6.5zM89.5 44c9.6-.2 18.7-2.4 26.8-6.2C110.5 25 101 16.2 90.3 15c-.3 0-.5-.1-.8-.1V44zM119.6 36.2c4.8-2.6 9.2-5.7 13.1-9.4-8.5-5.2-18.6-8.9-29.7-10.7 6.7 4.3 12.5 11.3 16.6 20.1zM86.2 14.8c-.6 0-1.1.1-1.6.2-10.5 1.4-19.7 9.9-25.5 22.4 8.2 4 17.4 6.3 27.2 6.6V14.8zM71.8 16.4c-10.5 1.9-20.1 5.5-28.2 10.5 3.7 3.4 7.8 6.4 12.3 8.9 4-8.5 9.5-15.2 15.9-19.4zM40.7 28.8C32 34.8 25.2 42.4 21.3 51h29.5c.9-4.3 2.2-8.4 3.8-12.2-5.1-2.8-9.8-6.1-13.9-10zM86.2 47.3C76 47 66.3 44.6 57.8 40.5c-1.3 3.3-2.4 6.8-3.2 10.6h31.7v-3.8z"/><path class="st2" d="M88.1 44h-1.9v3.3h3.3V44h-1.4zM120.9 39.2c-.4-1-.9-2.1-1.3-3.1-1 .6-2.1 1.1-3.2 1.6.5 1 .9 2 1.3 3.1 1-.5 2.1-1 3.2-1.6zM55.9 35.8c-.5 1-.9 2-1.4 3 1.1.6 2.1 1.1 3.2 1.6.4-1 .9-2.1 1.3-3.1-1-.4-2.1-1-3.1-1.5z"/><g><path class="st2" d="M50.7 86.1H21.4c3.9 8.6 10.7 16.2 19.5 22.2 4.1-3.8 8.7-7.2 13.7-9.9-1.7-3.8-2.9-8-3.9-12.3zM86.2 86.1H54.5c.8 3.8 1.9 7.3 3.3 10.7 8.6-4.1 18.2-6.5 28.5-6.8v-3.9zM86.2 93.2c-9.8.3-19 2.6-27.2 6.6 5.5 11.8 14 20.1 23.8 22.1 1.5.3 2.3.4 3.4.5V93.2zM55.9 101.4c-4.4 2.5-8.5 5.4-12.1 8.7 8 4.9 17.4 8.5 27.6 10.4-6.3-4.2-11.6-10.8-15.5-19.1zM124.5 86.1c-.9 4.2-2.1 8.2-3.6 11.9 5.4 2.8 10.3 6.3 14.6 10.4 8.8-6 15.6-13.6 19.6-22.3h-30.6zM89.5 89.9c10.1.2 19.6 2.5 28.1 6.4 1.3-3.2 2.3-6.7 3.1-10.3H89.5v3.9zM103.5 120.8c10.8-1.8 20.7-5.5 29-10.6-3.9-3.6-8.2-6.7-13-9.2-3.9 8.6-9.5 15.5-16 19.8zM89.5 122.3c1.1-.1 1.4-.2 2.6-.4 10-2 18.7-10.4 24.3-22.6-8.1-3.8-17.2-6-26.8-6.2v29.2z"/><path class="st1" d="M86.2 89.9v3.3h3.3v-3.3h-3.3zM54.5 98.4c.4 1 .9 2.1 1.4 3.1 1-.6 2.1-1.1 3.2-1.6-.5-1-.9-2-1.3-3-1.1.4-2.2.9-3.3 1.5zM116.4 99.4c1.1.5 2.2 1 3.2 1.6.5-1 .9-2 1.3-3.1-1.1-.6-2.1-1.1-3.2-1.6-.5 1.1-.9 2.1-1.3 3.1z"/></g><g><path class="st2" d="M40.4 53.3L55.8 83h-8.2l-4.1-8H30.7l-4.3 8h-5.5l16-29.6h3.5zm-8.2 19h9.9L37.2 63l-5 9.3zM57.5 54h5.1l18.7 18.4V54h5v29.4h-3.5L62.6 63.1V83h-5.1V54zM97 54l10.9 20L118 54h5.2l-14.8 29.4h-3.8L88.7 54H97zM125.3 54h12.3c2.1 0 4 .2 5.6.6 1.6.4 2.9.9 4 1.7 1.1.7 1.9 1.5 2.4 2.5s.8 2 .8 3.2c0 .8-.2 1.6-.5 2.3-.4.7-.9 1.4-1.5 2-.7.6-1.5 1.2-2.4 1.6-.9.5-1.9.9-3.1 1.2L154.5 83h-8.7l-11-13.1h-1.4V83h-8V54zm6.9 13.3h1.8c1 0 1.9-.1 2.7-.4.8-.2 1.6-.6 2.2-1 .6-.5 1.1-1 1.5-1.7.4-.7.5-1.4.5-2.2 0-.8-.1-1.5-.4-2.1-.3-.6-.6-1.2-1.1-1.7-.5-.5-1-.8-1.7-1.1-.7-.3-1.4-.4-2.2-.4h-3.3v10.6z"/></g></svg>